<svg width="20" height="20" viewBox="0 0 20 20" fill="none" xmlns="http://www.w3.org/2000/svg">
<path d="M9.16666 10.8333C9.53916 10.8333 9.90583 10.8533 10.2633 10.8917C10.4065 10.907 10.5432 10.9592 10.6602 11.0431C10.7772 11.127 10.8704 11.2398 10.9308 11.3705C10.9913 11.5011 11.0168 11.6452 11.005 11.7887C10.9931 11.9322 10.9443 12.0702 10.8633 12.1892C10.2988 13.0177 9.99789 13.9975 10 15C10 15.7667 10.1725 16.4917 10.4792 17.1392C10.5389 17.2653 10.566 17.4044 10.558 17.5438C10.55 17.6831 10.5071 17.8182 10.4333 17.9367C10.3594 18.0551 10.257 18.1532 10.1355 18.2217C10.0139 18.2903 9.87706 18.3273 9.7375 18.3292L9.16666 18.3333C7.30916 18.3333 5.55416 18.2167 4.23916 17.8683C3.585 17.695 2.96916 17.4467 2.5025 17.0717C2.00833 16.675 1.66666 16.1208 1.66666 15.4167C1.66666 14.7608 1.965 14.1475 2.37 13.6342C2.78166 13.1133 3.35083 12.6342 4.01833 12.2258C5.35416 11.4125 7.17083 10.8333 9.16666 10.8333ZM15.4167 10.8333C15.9692 10.8333 16.4991 11.0528 16.8898 11.4435C17.2805 11.8342 17.5 12.3641 17.5 12.9167V13.4042C17.7438 13.4904 17.9549 13.6501 18.1041 13.8613C18.2534 14.0724 18.3335 14.3247 18.3333 14.5833V17.0833C18.3333 17.4149 18.2016 17.7328 17.9672 17.9672C17.7328 18.2016 17.4149 18.3333 17.0833 18.3333H13.75C13.4185 18.3333 13.1005 18.2016 12.8661 17.9672C12.6317 17.7328 12.5 17.4149 12.5 17.0833V14.5833C12.4999 14.3247 12.5799 14.0724 12.7292 13.8613C12.8784 13.6501 13.0895 13.4904 13.3333 13.4042V12.9167C13.3333 12.3641 13.5528 11.8342 13.9435 11.4435C14.3342 11.0528 14.8641 10.8333 15.4167 10.8333ZM15.4167 12.5C15.3191 12.5 15.2247 12.5341 15.1498 12.5966C15.0749 12.659 15.0242 12.7457 15.0067 12.8417L15 12.9167V13.3333H15.8333V12.9167C15.8333 12.8062 15.7894 12.7002 15.7113 12.622C15.6332 12.5439 15.5272 12.5 15.4167 12.5ZM9.16666 1.66667C10.2717 1.66667 11.3315 2.10565 12.1129 2.88706C12.8943 3.66846 13.3333 4.72827 13.3333 5.83333C13.3333 6.9384 12.8943 7.99821 12.1129 8.77961C11.3315 9.56101 10.2717 10 9.16666 10C8.0616 10 7.00179 9.56101 6.22039 8.77961C5.43898 7.99821 5 6.9384 5 5.83333C5 4.72827 5.43898 3.66846 6.22039 2.88706C7.00179 2.10565 8.0616 1.66667 9.16666 1.66667Z" fill="white"/>
</svg>
