<svg width="112" height="112" viewBox="0 0 112 112" fill="none" xmlns="http://www.w3.org/2000/svg">
<circle cx="56" cy="56" r="56" fill="#F5F7FA"/>
<path d="M29 94H85V36L71 22H29V94Z" fill="#D4DDEA"/>
<path d="M71 22V32V36H85L71 22Z" fill="white"/>
<rect x="33" y="39" width="24" height="6" fill="white" fill-opacity="0.5"/>
<rect x="33" y="52" width="34" height="6" fill="white" fill-opacity="0.5"/>
<rect x="33" y="65" width="46" height="6" fill="white" fill-opacity="0.5"/>
<circle cx="70.5135" cy="63.5135" r="16.2635" fill="#F5F7FA" stroke="#A6B1C2" stroke-width="4.5"/>
<rect x="84.1992" y="72.5195" width="15.8687" height="4.5" transform="rotate(45 84.1992 72.5195)" fill="#A6B1C2"/>
<path d="M69.8281 67.3333C69.8281 66.2083 69.929 65.3994 70.1306 64.9067C70.3323 64.4139 70.7592 63.8756 71.4115 63.2917C71.9809 62.7917 72.4151 62.3578 72.714 61.99C73.0128 61.6222 73.162 61.2019 73.1615 60.7292C73.1615 60.1597 72.9706 59.6875 72.589 59.3125C72.2073 58.9375 71.6759 58.75 70.9948 58.75C70.2865 58.75 69.7484 58.9653 69.3806 59.3958C69.0128 59.8264 68.7523 60.2639 68.599 60.7083L66.4531 59.7917C66.7448 58.9028 67.2795 58.1319 68.0573 57.4792C68.8351 56.8264 69.8142 56.5 70.9948 56.5C72.4531 56.5 73.5748 56.9064 74.3598 57.7192C75.1448 58.5319 75.537 59.5075 75.5365 60.6458C75.5365 61.3403 75.3873 61.9342 75.089 62.4275C74.7906 62.9208 74.3217 63.4797 73.6823 64.1042C73.0017 64.7569 72.5887 65.2536 72.4431 65.5942C72.2976 65.9347 72.2245 66.5144 72.224 67.3333H69.8281ZM70.9948 72.3333C70.5365 72.3333 70.1442 72.1703 69.8181 71.8442C69.492 71.5181 69.3287 71.1256 69.3281 70.6667C69.3281 70.2083 69.4915 69.8161 69.8181 69.49C70.1448 69.1639 70.537 69.0006 70.9948 69C71.4531 69 71.8456 69.1633 72.1723 69.49C72.499 69.8167 72.662 70.2089 72.6615 70.6667C72.6615 71.125 72.4984 71.5175 72.1723 71.8442C71.8462 72.1708 71.4537 72.3339 70.9948 72.3333Z" fill="#A6B1C2"/>
</svg>
