<svg width="256" height="256" viewBox="0 0 256 256" fill="none" xmlns="http://www.w3.org/2000/svg">
<circle cx="128" cy="128" r="128" fill="#F5F7FA"/>
<rect opacity="0.5" x="71.834" y="56.6758" width="120" height="150" fill="#D4DDEA"/>
<rect x="64.1641" y="49.3281" width="120" height="150" fill="#D4DDEA"/>
<rect x="80.1641" y="81.3281" width="38.2016" height="7.44186" fill="white"/>
<rect x="80.1641" y="104.77" width="55.7153" height="7.44186" fill="white"/>
<rect x="80.1641" y="128.211" width="68.2559" height="7.44186" fill="white"/>
<path d="M180.007 189.151C176.318 189.151 172.851 188.449 169.607 187.045C166.362 185.64 163.54 183.736 161.14 181.332C158.74 178.926 156.84 176.097 155.441 172.845C154.042 169.592 153.342 166.117 153.34 162.419C153.34 158.721 154.04 155.246 155.441 151.994C156.842 148.742 158.742 145.912 161.14 143.507C163.54 141.101 166.362 139.196 169.607 137.794C172.851 136.391 176.318 135.689 180.007 135.688C183.695 135.688 187.162 136.39 190.407 137.794C193.651 139.198 196.473 141.102 198.873 143.507C201.273 145.912 203.174 148.742 204.575 151.994C205.975 155.246 206.675 158.721 206.673 162.419C206.673 166.117 205.973 169.592 204.572 172.845C203.171 176.097 201.271 178.926 198.873 181.332C196.473 183.738 193.651 185.643 190.407 187.047C187.162 188.452 183.695 189.153 180.007 189.151Z" fill="#A6B1C2"/>
<path d="M180.007 175.786C180.762 175.786 181.396 175.53 181.908 175.017C182.42 174.503 182.675 173.869 182.673 173.113C182.673 172.356 182.417 171.721 181.905 171.207C181.393 170.694 180.76 170.438 180.007 170.44C179.251 170.44 178.617 170.697 178.105 171.21C177.593 171.723 177.338 172.358 177.34 173.113C177.34 173.871 177.596 174.506 178.108 175.019C178.62 175.533 179.253 175.788 180.007 175.786ZM177.34 165.094H182.673V149.055H177.34V165.094Z" fill="white" fill-opacity="0.5"/>
</svg>
