<svg width="20" height="20" viewBox="0 0 20 20" fill="none" xmlns="http://www.w3.org/2000/svg">
<path d="M9.16675 10.8337C9.53925 10.8337 9.90592 10.8537 10.2634 10.892C10.4832 10.9153 10.6847 11.025 10.8237 11.1969C10.9626 11.3688 11.0276 11.5889 11.0042 11.8087C10.9809 12.0285 10.8713 12.23 10.6993 12.3689C10.5274 12.5079 10.3074 12.5728 10.0876 12.5495C9.78758 12.517 9.47925 12.5003 9.16675 12.5003C7.48092 12.5003 5.96425 12.992 4.88675 13.6495C4.34758 13.9778 3.94091 14.3345 3.67841 14.6678C3.40841 15.0095 3.33341 15.2678 3.33341 15.417C3.33341 15.5187 3.36425 15.6262 3.54591 15.772C3.75341 15.9387 4.11425 16.1112 4.66591 16.257C5.76425 16.5487 7.34258 16.667 9.16675 16.667L9.71508 16.6628C9.9361 16.6598 10.1492 16.7448 10.3076 16.8989C10.466 17.0531 10.5567 17.2639 10.5597 17.4849C10.5626 17.7059 10.4777 17.9191 10.3235 18.0775C10.1694 18.2358 9.9586 18.3265 9.73758 18.3295L9.16675 18.3337C7.30925 18.3337 5.55425 18.217 4.23925 17.8687C3.58508 17.6953 2.96925 17.447 2.50258 17.072C2.00841 16.6753 1.66675 16.1212 1.66675 15.417C1.66675 14.7612 1.96508 14.1478 2.37008 13.6345C2.78175 13.1137 3.35091 12.6345 4.01841 12.2262C5.35425 11.4128 7.17092 10.8337 9.16675 10.8337ZM15.4167 10.8337C15.9457 10.8336 16.4548 11.0347 16.841 11.3962C17.2271 11.7577 17.4612 12.2525 17.4959 12.7803L17.5001 12.917V13.4045C17.9484 13.5628 18.2792 13.9695 18.3276 14.4595L18.3334 14.5837V17.0837C18.3334 17.3944 18.2176 17.694 18.0087 17.924C17.7998 18.154 17.5127 18.298 17.2034 18.3278L17.0834 18.3337H13.7501C13.4393 18.3336 13.1398 18.2179 12.9097 18.009C12.6797 17.8001 12.5357 17.513 12.5059 17.2037L12.5001 17.0837V14.5837C12.5001 14.3452 12.5682 14.1118 12.6965 13.9108C12.8248 13.7099 13.0079 13.5498 13.2242 13.4495L13.3334 13.4045V12.917C13.3334 12.3645 13.5529 11.8346 13.9436 11.4439C14.3343 11.0532 14.8642 10.8337 15.4167 10.8337ZM16.6667 15.0003H14.1667V16.667H16.6667V15.0003ZM15.4167 12.5003C15.3062 12.5003 15.2003 12.5442 15.1221 12.6224C15.044 12.7005 15.0001 12.8065 15.0001 12.917V13.3337H15.8334V12.917C15.8334 12.8065 15.7895 12.7005 15.7114 12.6224C15.6332 12.5442 15.5273 12.5003 15.4167 12.5003ZM9.16675 1.66699C10.2718 1.66699 11.3316 2.10598 12.113 2.88738C12.8944 3.66878 13.3334 4.72859 13.3334 5.83366C13.3334 6.93873 12.8944 7.99854 12.113 8.77994C11.3316 9.56134 10.2718 10.0003 9.16675 10.0003C8.06168 10.0003 7.00187 9.56134 6.22047 8.77994C5.43907 7.99854 5.00008 6.93873 5.00008 5.83366C5.00008 4.72859 5.43907 3.66878 6.22047 2.88738C7.00187 2.10598 8.06168 1.66699 9.16675 1.66699ZM9.16675 3.33366C8.83844 3.33366 8.51335 3.39832 8.21004 3.52396C7.90673 3.6496 7.63113 3.83375 7.39898 4.06589C7.16683 4.29804 6.98269 4.57364 6.85705 4.87695C6.73141 5.18026 6.66675 5.50535 6.66675 5.83366C6.66675 6.16196 6.73141 6.48705 6.85705 6.79037C6.98269 7.09368 7.16683 7.36928 7.39898 7.60143C7.63113 7.83357 7.90673 8.01772 8.21004 8.14336C8.51335 8.26899 8.83844 8.33366 9.16675 8.33366C9.82979 8.33366 10.4657 8.07027 10.9345 7.60143C11.4034 7.13259 11.6667 6.4967 11.6667 5.83366C11.6667 5.17062 11.4034 4.53473 10.9345 4.06589C10.4657 3.59705 9.82979 3.33366 9.16675 3.33366Z" fill="#A6B1C2"/>
</svg>
