<svg width="28" height="28" viewBox="0 0 28 28" fill="none" xmlns="http://www.w3.org/2000/svg">
<path d="M6.99967 16.333H16.333V13.9997H6.99967V16.333ZM6.99967 12.833H20.9997V10.4997H6.99967V12.833ZM6.99967 9.33301H20.9997V6.99968H6.99967V9.33301ZM2.33301 25.6663V4.66634C2.33301 4.02468 2.56167 3.47518 3.01901 3.01784C3.47634 2.56051 4.02545 2.33223 4.66634 2.33301H23.333C23.9747 2.33301 24.5242 2.56168 24.9815 3.01901C25.4388 3.47634 25.6671 4.02545 25.6663 4.66634V18.6663C25.6663 19.308 25.4377 19.8575 24.9803 20.3148C24.523 20.7722 23.9739 21.0005 23.333 20.9997H6.99967L2.33301 25.6663ZM6.00801 18.6663H23.333V4.66634H4.66634V19.9788L6.00801 18.6663Z" fill="#025CB9"/>
</svg>
