<svg width="1220" height="344" viewBox="0 0 1220 344" fill="none" xmlns="http://www.w3.org/2000/svg">
<rect x="530.5" y="0.5" width="159" height="45" stroke="currentColor"/>
<text x="570" y="29.6" fill="currentColor" font-size="20px" font-weight="600">申请流程</text>
<path d="M223 110L587 110" stroke="currentColor"/>
<path d="M633 110L997 110" stroke="currentColor"/>
<rect x="176.5" y="86.5" width="47" height="47" rx="23.5" stroke="currentColor"/>
<text x="193.9" y="117.6" fill="currentColor" font-size="20px" font-weight="600">1</text>
<text x="128" y="167.8" fill="black">
<tspan>用户提交身份认证后</tspan>
<tspan x="128" dy="24">等待管理员审核通过</tspan>
</text>
<rect x="586.5" y="86.5" width="47" height="47" rx="23.5" stroke="currentColor"/>
<text x="604" y="117.6" fill="currentColor" font-size="20px" font-weight="600">2</text>
<text x="538" y="167.8" fill="black">
<tspan>用户申请使用云桌面</tspan>
<tspan x="570.1" dy="24">并进行排队</tspan>
</text>
<path d="M405.6 110L401 105.4L402.4 104L408.4 110L402.4 116L401 114.6L405.6 110Z" fill="currentColor"/>
<path d="M815.6 110L811 105.4L812.4 104L818.4 110L812.4 116L811 114.6L815.6 110Z" fill="currentColor"/>
<rect x="996.5" y="86.5" width="47" height="47" rx="23.5" stroke="currentColor"/>
<text x="1014" y="117.6" fill="currentColor" font-size="20px" font-weight="600">3</text>
<text x="891.8" y="167.8" fill="black">
<tspan>用户登录云桌面，并在云桌面中使用</tspan>
</text>
<g style="transform: translateX(-50%); transform-box: fill-box;">
<text x="1020.2" y="191.8" fill="black">“智能云科研平台”</text>
</g>
<path d="M1020 236.4L1014 230.4L1015.4 229L1020 233.6L1024.6 229L1026 230.4L1020 236.4Z" fill="currentColor"/>
<path d="M793.5 256.997C868.871 256.997 1020 256.997 1020 256.997L1020 201.5M1020 133.5L1020 147" stroke="currentColor"/>
<path d="M329 257L747 257" stroke="currentColor"/>
<rect x="282.5" y="233.5" width="47" height="47" rx="23.5" stroke="currentColor"/>
<text x="299.8" y="264.6" fill="currentColor" font-size="20px" font-weight="600">5</text>
<text x="193.6" y="315" fill="black">
<tspan>用户可外发研究成果，经管理员</tspan>
<tspan x="226.1" dy="24">审核通过后发送至邮箱</tspan>
</text>
<path d="M540 263L534 257L540 251L541.4 252.4L536.8 257L541.4 261.6L540 263Z" fill="currentColor"/>
<rect x="746.5" y="233.5" width="47" height="47" rx="23.5" stroke="currentColor"/>
<text x="763.8" y="264.6" fill="currentColor" font-size="20px" font-weight="600">4</text>
<text x="641.9" y="315" fill="black">
<tspan>用户可自行上传数据，和本平台数据</tspan>
<tspan x="714.3" dy="24">进行匹配和分析</tspan>
</text>
</svg>
