<svg width="222" height="184" viewBox="0 0 222 184" fill="none" xmlns="http://www.w3.org/2000/svg">
<circle cx="107.529" cy="90.0018" r="86.1" fill="#F2F7FB"/>
<g filter="url(#filter0_d_627_14151)">
<rect x="80.4302" y="24" width="118" height="132" rx="8" fill="white"/>
</g>
<g filter="url(#filter1_d_627_14151)">
<rect x="16.4302" y="14" width="137" height="152" rx="8" fill="white"/>
</g>
<rect x="31.0005" y="52" width="57" height="11" rx="2.93023" fill="currentColor" fill-opacity="0.12"/>
<rect x="31.0005" y="79" width="79" height="12" rx="2.93023" fill="currentColor" fill-opacity="0.12"/>
<rect x="31.4302" y="107" width="97" height="12" rx="2.93023" fill="currentColor" fill-opacity="0.12"/>
<path d="M188.113 145.753C187.109 145.753 186.146 146.152 185.437 146.862C184.727 147.572 184.328 148.534 184.328 149.538C184.328 150.542 184.727 151.505 185.437 152.214C186.146 152.924 187.109 153.323 188.113 153.323C189.117 153.323 190.079 152.924 190.789 152.214C191.499 151.505 191.898 150.542 191.898 149.538C191.898 148.534 191.499 147.572 190.789 146.862C190.079 146.152 189.117 145.753 188.113 145.753ZM188.113 119.26C187.186 119.26 186.291 119.601 185.598 120.217C184.906 120.833 184.463 121.682 184.355 122.602L184.328 123.045V138.184C184.329 139.149 184.699 140.076 185.361 140.778C186.023 141.479 186.928 141.901 187.891 141.958C188.854 142.014 189.802 141.701 190.542 141.082C191.282 140.463 191.757 139.585 191.871 138.627L191.898 138.184V123.045C191.898 122.041 191.499 121.079 190.789 120.369C190.079 119.659 189.117 119.26 188.113 119.26Z" fill="white"/>
<path d="M187.93 99C206.432 99 221.43 113.998 221.43 132.5C221.43 151.002 206.432 166 187.93 166C169.428 166 154.43 151.002 154.43 132.5C154.43 113.998 169.428 99 187.93 99Z" fill="#A6B1C2"/>
<path d="M187.933 115.75C187.113 115.75 186.321 116.051 185.707 116.597C185.094 117.142 184.703 117.893 184.607 118.708L184.583 119.1V129.15H174.533C173.679 129.151 172.858 129.478 172.237 130.064C171.616 130.65 171.243 131.451 171.193 132.304C171.142 133.156 171.42 133.995 171.968 134.65C172.516 135.305 173.293 135.726 174.141 135.827L174.533 135.85H184.583V145.9C184.584 146.754 184.911 147.575 185.497 148.196C186.083 148.817 186.884 149.19 187.737 149.241C188.589 149.291 189.428 149.013 190.083 148.465C190.738 147.917 191.159 147.14 191.26 146.292L191.283 145.9V135.85H201.333C202.187 135.849 203.008 135.522 203.629 134.936C204.25 134.35 204.624 133.549 204.674 132.696C204.724 131.844 204.446 131.005 203.898 130.35C203.35 129.695 202.573 129.274 201.725 129.173L201.333 129.15H191.283V119.1C191.283 118.212 190.93 117.359 190.302 116.731C189.674 116.103 188.822 115.75 187.933 115.75Z" fill="white"/>
<defs>
<filter id="filter0_d_627_14151" x="64.4302" y="10" width="150" height="164" filterUnits="userSpaceOnUse" color-interpolation-filters="sRGB">
<feFlood flood-opacity="0" result="BackgroundImageFix"/>
<feColorMatrix in="SourceAlpha" type="matrix" values="0 0 0 0 0 0 0 0 0 0 0 0 0 0 0 0 0 0 127 0" result="hardAlpha"/>
<feOffset dy="2"/>
<feGaussianBlur stdDeviation="8"/>
<feComposite in2="hardAlpha" operator="out"/>
<feColorMatrix type="matrix" values="0 0 0 0 0.0520297 0 0 0 0 0.147829 0 0 0 0 0.487479 0 0 0 0.12 0"/>
<feBlend mode="normal" in2="BackgroundImageFix" result="effect1_dropShadow_627_14151"/>
<feBlend mode="normal" in="SourceGraphic" in2="effect1_dropShadow_627_14151" result="shape"/>
</filter>
<filter id="filter1_d_627_14151" x="0.430237" y="0" width="169" height="184" filterUnits="userSpaceOnUse" color-interpolation-filters="sRGB">
<feFlood flood-opacity="0" result="BackgroundImageFix"/>
<feColorMatrix in="SourceAlpha" type="matrix" values="0 0 0 0 0 0 0 0 0 0 0 0 0 0 0 0 0 0 127 0" result="hardAlpha"/>
<feOffset dy="2"/>
<feGaussianBlur stdDeviation="8"/>
<feComposite in2="hardAlpha" operator="out"/>
<feColorMatrix type="matrix" values="0 0 0 0 0.0520297 0 0 0 0 0.147829 0 0 0 0 0.487479 0 0 0 0.12 0"/>
<feBlend mode="normal" in2="BackgroundImageFix" result="effect1_dropShadow_627_14151"/>
<feBlend mode="normal" in="SourceGraphic" in2="effect1_dropShadow_627_14151" result="shape"/>
</filter>
</defs>
</svg>
