<svg width="20" height="20" viewBox="0 0 20 20" fill="none" xmlns="http://www.w3.org/2000/svg">
<path d="M3.33337 3.33329C3.33337 2.89127 3.50897 2.46734 3.82153 2.15478C4.13409 1.84222 4.55801 1.66663 5.00004 1.66663H15C15.4421 1.66663 15.866 1.84222 16.1786 2.15478C16.4911 2.46734 16.6667 2.89127 16.6667 3.33329V16.6666C16.6667 17.1087 16.4911 17.5326 16.1786 17.8451C15.866 18.1577 15.4421 18.3333 15 18.3333H5.00004C4.55801 18.3333 4.13409 18.1577 3.82153 17.8451C3.50897 17.5326 3.33337 17.1087 3.33337 16.6666V3.33329ZM15 3.33329H5.00004V16.6666H15V3.33329ZM6.66671 7.49996C6.66671 7.27895 6.7545 7.06698 6.91079 6.9107C7.06707 6.75442 7.27903 6.66663 7.50004 6.66663H12.5C12.7211 6.66663 12.933 6.75442 13.0893 6.9107C13.2456 7.06698 13.3334 7.27895 13.3334 7.49996C13.3334 7.72097 13.2456 7.93293 13.0893 8.08922C12.933 8.2455 12.7211 8.33329 12.5 8.33329H7.50004C7.27903 8.33329 7.06707 8.2455 6.91079 8.08922C6.7545 7.93293 6.66671 7.72097 6.66671 7.49996ZM7.50004 10.8333C7.27903 10.8333 7.06707 10.9211 6.91079 11.0774C6.7545 11.2337 6.66671 11.4456 6.66671 11.6666C6.66671 11.8876 6.7545 12.0996 6.91079 12.2559C7.06707 12.4122 7.27903 12.5 7.50004 12.5H10C10.2211 12.5 10.433 12.4122 10.5893 12.2559C10.7456 12.0996 10.8334 11.8876 10.8334 11.6666C10.8334 11.4456 10.7456 11.2337 10.5893 11.0774C10.433 10.9211 10.2211 10.8333 10 10.8333H7.50004Z" fill="#025CB9"/>
</svg>
