<svg width="24" height="24" viewBox="0 0 24 24" fill="none" xmlns="http://www.w3.org/2000/svg">
<path d="M12 15.75C12.3315 15.75 12.6495 15.8817 12.8839 16.1161C13.1183 16.3505 13.25 16.6685 13.25 17C13.25 17.3315 13.1183 17.6495 12.8839 17.8839C12.6495 18.1183 12.3315 18.25 12 18.25C11.6685 18.25 11.3505 18.1183 11.1161 17.8839C10.8817 17.6495 10.75 17.3315 10.75 17C10.75 16.6685 10.8817 16.3505 11.1161 16.1161C11.3505 15.8817 11.6685 15.75 12 15.75ZM12 10.75C12.3315 10.75 12.6495 10.8817 12.8839 11.1161C13.1183 11.3505 13.25 11.6685 13.25 12C13.25 12.3315 13.1183 12.6495 12.8839 12.8839C12.6495 13.1183 12.3315 13.25 12 13.25C11.6685 13.25 11.3505 13.1183 11.1161 12.8839C10.8817 12.6495 10.75 12.3315 10.75 12C10.75 11.6685 10.8817 11.3505 11.1161 11.1161C11.3505 10.8817 11.6685 10.75 12 10.75ZM12 5.75C12.3315 5.75 12.6495 5.8817 12.8839 6.11612C13.1183 6.35054 13.25 6.66848 13.25 7C13.25 7.33152 13.1183 7.64946 12.8839 7.88388C12.6495 8.1183 12.3315 8.25 12 8.25C11.6685 8.25 11.3505 8.1183 11.1161 7.88388C10.8817 7.64946 10.75 7.33152 10.75 7C10.75 6.66848 10.8817 6.35054 11.1161 6.11612C11.3505 5.8817 11.6685 5.75 12 5.75Z" fill="#6E7686"/>
</svg>
