<svg width="20" height="20" viewBox="0 0 20 20" fill="none" xmlns="http://www.w3.org/2000/svg">
<path d="M8.27513 16.4401C9.73432 16.8309 11.2829 16.7147 12.6675 16.1107C14.0521 15.5067 15.1906 14.4505 15.8968 13.1151C15.9478 13.0183 16.0174 12.9324 16.1015 12.8625C16.1857 12.7925 16.2829 12.7398 16.3874 12.7074C16.4919 12.675 16.6018 12.6634 16.7108 12.6735C16.8198 12.6835 16.9258 12.715 17.0226 12.766C17.1195 12.817 17.2053 12.8865 17.2753 12.9707C17.3453 13.0549 17.398 13.152 17.4304 13.2566C17.4628 13.3611 17.4743 13.471 17.4643 13.58C17.4542 13.689 17.4228 13.7949 17.3718 13.8918C15.5968 17.2585 11.6751 19.076 7.84346 18.0501C3.39763 16.8585 0.760129 12.2893 1.95096 7.84346C3.14263 3.39763 7.7118 0.760129 12.1568 1.95096C13.918 2.42282 15.4759 3.45911 16.5918 4.90105C17.7078 6.34299 18.3201 8.11104 18.3351 9.93429C18.341 10.6868 17.506 11.1026 16.9076 10.701L14.6801 9.1993C13.8401 8.63263 14.4035 7.32346 15.3918 7.5443L16.2735 7.74096C15.8848 6.66238 15.2246 5.70225 14.3566 4.95331C13.4886 4.20437 12.4421 3.69194 11.3182 3.46552C10.1943 3.23909 9.03102 3.30633 7.9407 3.66073C6.85039 4.01512 5.8699 4.64471 5.09394 5.48866C4.31797 6.33261 3.77277 7.36242 3.51098 8.47859C3.2492 9.59476 3.27968 10.7596 3.59948 11.8605C3.91929 12.9615 4.51761 13.9614 5.33665 14.7636C6.15569 15.5658 7.16777 16.1432 8.27513 16.4401Z" fill="#025CB9"/>
</svg>
