<svg width="20" height="20" viewBox="0 0 20 20" fill="none" xmlns="http://www.w3.org/2000/svg">
<path d="M12.9883 2.5C13.4303 2.50009 13.8542 2.67575 14.1667 2.98833L16.1783 5C16.4909 5.31249 16.6666 5.73634 16.6667 6.17833V15.8333C16.6667 16.2754 16.4911 16.6993 16.1785 17.0118C15.866 17.3244 15.442 17.5 15 17.5H4.16667C3.72464 17.5 3.30072 17.3244 2.98816 17.0118C2.67559 16.6993 2.5 16.2754 2.5 15.8333V4.16667C2.5 3.72464 2.67559 3.30072 2.98816 2.98816C3.30072 2.67559 3.72464 2.5 4.16667 2.5H12.9883ZM6.66667 4.16667H4.16667V15.8333H5.83333V11.6667C5.83333 11.2246 6.00893 10.8007 6.32149 10.4882C6.63405 10.1756 7.05797 10 7.5 10H11.6667C12.1087 10 12.5326 10.1756 12.8452 10.4882C13.1577 10.8007 13.3333 11.2246 13.3333 11.6667V15.8333H15V6.17833L12.9883 4.16667H12.5V6.25C12.5 6.58152 12.3683 6.89946 12.1339 7.13388C11.8995 7.3683 11.5815 7.5 11.25 7.5H7.91667C7.58515 7.5 7.2672 7.3683 7.03278 7.13388C6.79836 6.89946 6.66667 6.58152 6.66667 6.25V4.16667ZM11.6667 11.6667H7.5V15.8333H11.6667V11.6667ZM10.8333 4.16667H8.33333V5.83333H10.8333V4.16667Z" fill="#025CB9"/>
</svg>
